<svg width="83" height="83" viewBox="0 0 83 83" fill="none" xmlns="http://www.w3.org/2000/svg">
<path d="M69.216 13.304C61.6174 5.8147 52.3787 2.07003 41.5 2.07003C30.8947 2.07003 21.6834 5.8147 13.866 13.304C6.32205 20.848 2.55005 30.0867 2.55005 41.02C2.55005 51.9534 6.32205 61.1647 13.866 68.654C21.5194 76.4167 30.7307 80.298 41.5 80.298C52.5427 80.298 61.7814 76.4167 69.216 68.654C76.7054 61.1647 80.4501 51.967 80.4501 41.061C80.4501 30.155 76.7054 20.9027 69.216 13.304ZM66.7561 15.764C70.2001 19.3174 72.7694 23.1714 74.4641 27.326C76.1587 31.4807 77.0061 36.0454 77.0061 41.02C77.0061 51.0787 73.5894 59.4974 66.7561 66.276C63.3121 69.7747 59.4717 72.426 55.2351 74.23C50.9984 76.034 46.42 76.936 41.5 76.936C31.6054 76.936 23.296 73.3827 16.572 66.276C13.128 62.832 10.504 58.9917 8.70005 54.755C6.89605 50.5184 5.99405 45.9264 5.99405 40.979C5.99405 36.0317 6.85505 31.4807 8.57705 27.326C10.299 23.1714 12.964 19.3174 16.572 15.764C20.016 12.32 23.8427 9.68237 28.052 7.85104C32.2614 6.0197 36.744 5.10403 41.5 5.10403C50.9574 5.10403 59.376 8.65736 66.7561 15.764ZM36.416 32.164V52.664L53.1441 42.414L36.416 32.164Z" fill="white"/>
</svg>
