<svg xmlns="http://www.w3.org/2000/svg" width="38" height="36" fill="none"><path fill="#D6DEE8" d="M35.07 18.75C35.07 9.8 27.87 2.5 19 2.5c-8.86 0-16.07 7.3-16.07 16.25 0 4.84 2.1 9.2 5.42 12.17L6.3 34.36c-.32.5-.16 1.17.34 1.48.18.1.37.16.56.16.36 0 .7-.18.9-.52l1.95-3.23C12.6 34 15.7 35 19 35c3.3 0 6.4-1 8.95-2.75l1.94 3.23c.2.34.54.52.9.52.2 0 .38-.05.56-.16.5-.3.66-.97.35-1.48l-2.05-3.44c3.32-2.98 5.42-7.33 5.42-12.17zM19 32.85c-7.7 0-13.94-6.32-13.94-14.1 0-7.77 6.25-14.1 13.94-14.1 7.7 0 13.94 6.33 13.94 14.1 0 7.78-6.25 14.1-13.94 14.1zM26.02 19.8l-4.06-1.34c-.15-1.52-1.42-2.7-2.96-2.7-.17 0-.33 0-.5.03l-3.42-4.97c-.34-.5-1-.6-1.5-.26-.47.34-.6 1-.25 1.5l3.34 4.82c-.4.5-.64 1.15-.64 1.85 0 1.66 1.33 3 2.97 3 .98 0 1.84-.47 2.4-1.2l3.96 1.3c.1.04.22.06.33.06.44 0 .86-.28 1-.74.2-.56-.12-1.17-.68-1.36zM19 19.6c-.46 0-.84-.38-.84-.85 0-.46.38-.84.84-.84.46 0 .84.4.84.85 0 .47-.38.85-.84.85zM10.6 3.37c.2-.2.32-.48.32-.76s-.1-.56-.3-.76C9.43.64 7.87 0 6.2 0 4.54 0 2.98.65 1.8 1.84c-2.43 2.45-2.43 6.44 0 8.9.2.2.48.3.75.3.28 0 .55-.1.76-.3l7.28-7.37zm-7.27 0c.77-.78 1.8-1.2 2.88-1.2.74 0 1.44.18 2.05.54L2.67 8.36c-.9-1.58-.67-3.64.66-4.98zM36.18 1.84C35 .64 33.45 0 31.78 0c-1.66 0-3.22.65-4.4 1.84-.2.2-.3.48-.3.77 0 .3.1.57.3.77l7.3 7.37c.2.2.47.3.75.3.27 0 .54-.1.75-.3 2.43-2.46 2.43-6.45 0-8.9zm-.85 6.5l-5.58-5.63c.6-.35 1.3-.54 2.04-.54 1.08 0 2.1.43 2.87 1.2 1.33 1.35 1.55 3.4.66 5z"/></svg>