<svg xmlns="http://www.w3.org/2000/svg" width="37" height="34" fill="none"><path fill="#D6DEE8" d="M1.3 34h34.4c.73 0 1.3-.57 1.3-1.3v-29c0-.72-.57-1.3-1.3-1.3H29.2V1.3c0-.73-.57-1.3-1.3-1.3-.74 0-1.3.57-1.3 1.3v1.1h-16V1.3c0-.73-.58-1.3-1.3-1.3C8.56 0 8 .57 8 1.3v1.1H1.3C.58 2.4 0 3 0 3.7v29.03C0 33.43.6 34 1.3 34zM2.6 5H8v.7C8 6.43 8.57 7 9.3 7c.74 0 1.3-.57 1.3-1.3V5h16v.7c0 .73.58 1.3 1.32 1.3.73 0 1.3-.57 1.3-1.3V5h5.2v6.9H2.62V5zm0 9.5h31.8v16.93H2.6V14.5zM18.52 24.27h-9.4c-.74 0-1.3.57-1.3 1.3 0 .73.56 1.3 1.3 1.3h9.4c.73 0 1.3-.57 1.3-1.3 0-.73-.57-1.3-1.3-1.3zM27.92 19H9.12c-.74 0-1.3.57-1.3 1.3 0 .73.56 1.3 1.3 1.3h18.8c.73 0 1.3-.57 1.3-1.3 0-.73-.57-1.3-1.3-1.3z"/></svg>