<svg xmlns="http://www.w3.org/2000/svg" width="26" height="36" fill="none"><path fill="#D6DEE8" d="M24.82 33.53h-2v-3.8c0-3.83-2.02-7.36-5.66-9.93-.45-.32-.74-1-.74-1.8s.3-1.48.74-1.8c3.64-2.57 5.65-6.1 5.65-9.94v-3.8h2.02c.65 0 1.18-.54 1.18-1.22C26 .54 25.47 0 24.82 0H1.18C.53 0 0 .55 0 1.24c0 .68.53 1.23 1.18 1.23h2v3.8c0 3.83 2.02 7.36 5.66 9.93.45.32.74 1 .74 1.8s-.3 1.48-.74 1.8C5.2 22.37 3.2 25.9 3.2 29.74v3.8H1.17c-.65 0-1.18.54-1.18 1.22C0 35.46.53 36 1.18 36h23.64c.65 0 1.18-.55 1.18-1.24 0-.68-.53-1.23-1.18-1.23zm-19.28-3.8c0-4.03 2.9-6.67 4.6-7.88 1.12-.78 1.8-2.22 1.8-3.85s-.68-3.07-1.8-3.85c-1.7-1.2-4.6-3.85-4.6-7.9V2.48h14.92v3.8c0 4.03-2.9 6.67-4.6 7.88-1.12.78-1.8 2.22-1.8 3.85s.68 3.07 1.8 3.85c1.7 1.2 4.6 3.85 4.6 7.9v3.78H5.54v-3.8z"/></svg>