<svg xmlns="http://www.w3.org/2000/svg" width="36" height="36" fill="none"><path fill="#D6DEE8" d="M32.27 7.03C29.34 3.23 25.1.78 20.33.15c-4.72-.6-9.4.63-13.2 3.5L5.78 2.27c-.4-.4-.75-.26-.8.3l-.45 4.9c-.05.56.36.97.9.92l4.93-.45c.55-.05.68-.42.3-.8L9.2 5.7c3.12-2.24 6.9-3.2 10.74-2.7 4 .53 7.56 2.58 10 5.78 2.47 3.2 3.54 7.16 3 11.16-.36 2.84-1.5 5.46-3.28 7.62-.72.88-1.55 1.68-2.48 2.4-3.2 2.45-7.16 3.52-11.16 3-4-.53-7.56-2.58-10.02-5.78-2.4-3.1-3.47-6.98-3.03-10.88.08-.8-.5-1.5-1.3-1.6C.93 14.62.2 15.2.1 16c-.5 4.65.78 9.25 3.63 12.97 2.93 3.8 7.17 6.25 11.93 6.88 4.77.62 9.5-.65 13.3-3.58 1.1-.85 2.1-1.8 2.96-2.86 2.12-2.56 3.48-5.68 3.92-9.06.63-4.77-.64-9.5-3.57-13.3zM17.3 6.3c-.65 0-1.18.5-1.18 1.16v11.67l10.68 5.52c.17.1.36.13.54.13.42 0 .83-.23 1.04-.63.3-.58.07-1.28-.5-1.58l-9.4-4.87V7.46c0-.65-.54-1.17-1.2-1.17z"/></svg>